HIERARCHY
ROOT Hips
{
	OFFSET 0.00000 0.00000 0.00000
	CHANNELS 6 Xposition Yposition Zposition Zrotation Yrotation Xrotation 
	JOINT LHipJoint
	{
		OFFSET 0 0 0
		CHANNELS 3 Zrotation Yrotation Xrotation
		JOINT LeftUpLeg
		{
			OFFSET 1.64549 -1.70879 0.84566
			CHANNELS 3 Zrotation Yrotation Xrotation
			JOINT LeftLeg
			{
				OFFSET 2.24963 -6.18082 0.00000
				CHANNELS 3 Zrotation Yrotation Xrotation
				JOINT LeftFoot
				{
					OFFSET 2.71775 -7.46697 0.00000
					CHANNELS 3 Zrotation Yrotation Xrotation
					JOINT LeftToeBase
					{
						OFFSET 0.18768 -0.51564 2.24737
						CHANNELS 3 Zrotation Yrotation Xrotation
						End Site
						{
							OFFSET 0.00000 -0.00000 1.15935
						}
					}
				}
			}
		}
	}
	JOINT RHipJoint
	{
		OFFSET 0 0 0
		CHANNELS 3 Zrotation Yrotation Xrotation
		JOINT RightUpLeg
		{
			OFFSET -1.58830 -1.70879 0.84566
			CHANNELS 3 Zrotation Yrotation Xrotation
			JOINT RightLeg
			{
				OFFSET -2.25006 -6.18201 0.00000
				CHANNELS 3 Zrotation Yrotation Xrotation
				JOINT RightFoot
				{
					OFFSET -2.72829 -7.49593 0.00000
					CHANNELS 3 Zrotation Yrotation Xrotation
					JOINT RightToeBase
					{
						OFFSET -0.21541 -0.59185 2.10643
						CHANNELS 3 Zrotation Yrotation Xrotation
						End Site
						{
							OFFSET -0.00000 -0.00000 1.09838
						}
					}
				}
			}
		}
	}
	JOINT LowerBack
	{
		OFFSET 0 0 0
		CHANNELS 3 Zrotation Yrotation Xrotation
		JOINT Spine
		{
			OFFSET 0.03142 2.10496 -0.11038
			CHANNELS 3 Zrotation Yrotation Xrotation
			JOINT Spine1
			{
				OFFSET -0.01863 2.10897 -0.06956
				CHANNELS 3 Zrotation Yrotation Xrotation
				JOINT Neck
				{
					OFFSET 0 0 0
					CHANNELS 3 Zrotation Yrotation Xrotation
					JOINT Neck1
					{
						OFFSET -0.02267 1.73238 0.00451
						CHANNELS 3 Zrotation Yrotation Xrotation
						JOINT Head
						{
							OFFSET -0.05808 1.54724 -0.61749
							CHANNELS 3 Zrotation Yrotation Xrotation
							End Site
							{
								OFFSET -0.01396 1.71468 -0.21082
							}
						}
					}
				}
				JOINT LeftShoulder
				{
					OFFSET 0 0 0
					CHANNELS 3 Zrotation Yrotation Xrotation
					JOINT LeftArm
					{
						OFFSET 3.44898 0.50298 0.21920
						CHANNELS 3 Zrotation Yrotation Xrotation
						JOINT LeftForeArm
						{
							OFFSET 5.41917 -0.00000 -0.00000
							CHANNELS 3 Zrotation Yrotation Xrotation
							JOINT LeftHand
							{
								OFFSET 2.44373 -0.00000 0.00000
								CHANNELS 3 Zrotation Yrotation Xrotation
								JOINT LeftFingerBase
								{
									OFFSET 0 0 0
									CHANNELS 3 Zrotation Yrotation Xrotation
									JOINT LeftHandIndex1
									{
										OFFSET 0.72750 -0.00000 0.00000
										CHANNELS 3 Zrotation Yrotation Xrotation
										End Site
										{
											OFFSET 0.58653 -0.00000 0.00000
										}
									}
								}
								JOINT LThumb
								{
									OFFSET 0 0 0
									CHANNELS 3 Zrotation Yrotation Xrotation
									End Site
									{
										OFFSET 0.59549 -0.00000 0.59549
									}
								}
							}
						}
					}
				}
				JOINT RightShoulder
				{
					OFFSET 0 0 0
					CHANNELS 3 Zrotation Yrotation Xrotation
					JOINT RightArm
					{
						OFFSET -3.23015 0.55830 0.31051
						CHANNELS 3 Zrotation Yrotation Xrotation
						JOINT RightForeArm
						{
							OFFSET -5.58976 -0.00010 0.00014
							CHANNELS 3 Zrotation Yrotation Xrotation
							JOINT RightHand
							{
								OFFSET -2.48060 -0.00000 0.00000
								CHANNELS 3 Zrotation Yrotation Xrotation
								JOINT RightFingerBase
								{
									OFFSET 0 0 0
									CHANNELS 3 Zrotation Yrotation Xrotation
									JOINT RightHandIndex1
									{
										OFFSET -0.81601 -0.00000 0.00000
										CHANNELS 3 Zrotation Yrotation Xrotation
										End Site
										{
											OFFSET -0.65789 -0.00000 0.00000
										}
									}
								}
								JOINT RThumb
								{
									OFFSET 0 0 0
									CHANNELS 3 Zrotation Yrotation Xrotation
									End Site
									{
										OFFSET -0.66793 -0.00000 0.66793
									}
								}
							}
						}
					}
				}
			}
		}
	}
}
MOTION
Frames: 12
Frame Time: 0.0138889
0.00 0.00 0.00 0 0 0 0 0 0 -21 0 0 0 0 0 0 0 0 0 0 0 0 0 0 21 0 0 0 0 0 0 0 0 0 0 0 0 0 0 0 0 0 0 0 0 0 0 -16 0 0 21 0 0 11 0 0 0 -8 0 0 0 0 0 0 0 0 0 0 0 0 0 0 0 0 0 0 0 0 8 0 0 0 0 0 0 0 0 0 0 0 0 0 0 0 0 0
0.00 0.00 0.00 -3.9541 8.4473 23.5254 0.0000 0.0000 0.0000 -20.3035 -16.4332 -35.3780 4.1103 12.3058 36.8224 4.3565 10.5440 -43.8752 0.5607 -4.7962 -13.3283 0.0000 0.0000 0.0000 27.7918 8.3768 -72.8301 -5.4134 -13.8348 42.5797 1.9751 -24.2841 -13.9132 -9.0952 -16.8686 56.4189 1.7212 -0.9213 -3.5076 1.3548 -1.0444 -12.4060 0.5639 -0.5858 -11.2967 -1.5540 -1.6554 -7.7806 6.7684 -4.6694 38.9014 2.4662 -1.3297 15.0757 -0.0000 0.0000 0.0000 66.4891 -34.6395 -71.4555 25.6667 -36.8777 -8.6869 -0.0000 -0.0000 10.8616 -2.6323 14.1929 -0.6458 -7.1250 0.0000 -0.0000 -26.7701 42.4547 1.8255 -0.0000 0.0000 0.0000 -48.0520 32.5985 -58.0283 -27.2390 38.4062 -9.6473 0.0000 -0.0000 -12.3470 2.7458 9.6161 0.4590 7.1250 -0.0000 -0.0000 20.8953 -20.5649 13.1107
0.00 0.00 0.00 -3.2033 13.1927 24.9054 0.0000 0.0000 0.0000 -19.3884 -18.9450 -32.7408 3.7633 11.8385 35.1631 4.3187 10.8245 -43.8578 0.8187 -5.7735 -16.1286 0.0000 0.0000 0.0000 40.5330 -4.8618 -82.5512 -5.3663 -13.7848 42.3822 1.5118 -22.8466 0.7336 -9.9009 -17.3538 59.1568 2.4225 -2.2423 1.9280 3.2514 -2.5944 -7.8919 2.3577 -1.3059 -9.3739 -1.3699 -2.8150 -11.0641 6.9741 -6.2060 34.1608 2.1102 -1.9674 13.6934 -0.0000 -0.0000 0.0000 65.6174 -43.6613 -73.0548 18.1359 -28.3309 -4.6136 -0.0000 -0.0000 23.5960 -1.6694 15.2358 -0.4388 -7.1250 0.0000 -0.0000 -26.3917 43.4926 1.0612 -0.0000 -0.0000 0.0000 -36.2959 39.6355 -48.2662 -26.1990 37.4046 -9.0083 0.0000 -0.0000 -14.6460 0.5919 10.2314 0.1051 7.1250 -0.0000 -0.0000 19.3643 -19.9791 12.2967
0.00 0.00 0.00 1.1187 25.8265 32.3574 0.0000 0.0000 0.0000 -18.4772 -21.0910 -37.0966 3.8075 11.8997 35.3781 3.2401 7.9509 -37.4254 2.8836 -10.5042 -30.6253 0.0000 0.0000 0.0000 57.4322 -16.6509 -100.5675 -5.3928 -13.8129 42.4931 -0.5266 -13.6873 15.0607 -10.0129 -17.4171 59.5313 7.6290 -3.9687 6.9581 7.7442 -3.8776 -3.9846 4.5486 -2.0431 -8.1576 -3.3900 -5.8793 -12.9665 8.4776 -9.6739 24.8985 2.3239 -3.7393 10.7468 0.0000 0.0000 0.0000 68.1256 -59.9571 -83.4666 13.0587 -21.3731 -2.4746 -0.0000 -0.0000 29.2141 3.9974 18.4809 1.2690 -7.1250 0.0000 -0.0000 -22.8636 47.1237 -1.2620 0.0000 0.0000 0.0000 -11.8666 42.3139 -24.8606 -22.3604 33.3819 -6.7831 0.0000 -0.0000 -18.0742 -5.0964 10.1653 -0.9018 7.1250 -0.0000 -0.0000 15.4763 -19.9398 9.6242
0.00 0.00 0.00 12.6797 33.9215 48.9021 0.0000 0.0000 0.0000 -18.4042 -24.9724 -42.2555 3.8185 11.9149 35.4317 1.7168 -1.2738 -24.4170 5.5962 -14.0253 -43.3389 0.0000 0.0000 0.0000 75.9608 -20.4533 -120.0605 -5.6130 -14.0426 43.4082 0.5554 22.3342 27.4707 -9.2853 -16.9879 57.0718 24.7662 -5.5404 18.3385 17.7077 0.6705 -0.0483 6.2758 -0.2762 -10.2502 -6.9395 -9.4299 -18.2050 5.9335 -11.9166 10.9874 1.6203 -5.5200 7.0869 0.0000 0.0000 0.0000 90.9118 -65.0910 -96.5630 12.3698 -20.3568 -2.2292 -0.0000 -0.0000 36.3052 9.0852 17.3768 2.7342 -7.1250 0.0000 -0.0000 -17.8379 46.7514 -0.7957 0.0000 0.0000 0.0000 -1.4771 50.4337 -51.6410 -9.3883 15.7771 -1.3037 0.0000 0.0000 6.7413 -9.0577 13.4683 -2.1264 7.1250 -0.0000 -0.0000 12.5508 -16.5502 8.6681
0.00 0.00 0.00 15.8307 30.9210 51.9753 0.0000 0.0000 0.0000 -19.8970 -23.0770 -43.8821 3.8652 11.9789 35.6572 0.3961 -12.1835 -13.1833 5.1919 -13.5967 -41.6452 0.0000 0.0000 0.0000 74.3674 -19.9841 -121.5808 -5.4836 -13.9086 42.8724 -0.0961 21.6908 31.2482 -9.4810 -17.1075 57.7391 24.9769 -5.7906 22.8161 18.2471 2.1598 0.2817 6.6003 0.2762 -12.1184 -9.7113 -9.0059 -12.8442 9.3163 -11.1815 3.0064 3.5199 -5.2707 4.0342 -0.0000 0.0000 0.0000 90.8881 -63.4283 -92.7875 12.9037 -21.1460 -2.4185 -0.0000 -0.0000 33.8374 9.8415 19.6352 3.3362 -7.1250 0.0000 -0.0000 -18.0402 49.0165 -1.8415 -0.0000 0.0000 0.0000 -2.3209 52.2031 -60.8524 -7.9085 13.4045 -0.9308 0.0000 0.0000 12.6307 -9.9849 15.6785 -2.7239 7.1250 -0.0000 -0.0000 11.8611 -14.3073 8.7552
0.00 0.00 0.00 17.1062 30.2291 53.1588 0.0000 0.0000 0.0000 -19.4874 -20.8307 -44.8913 3.9222 12.0561 35.9308 -1.1011 -18.4992 3.3440 3.1682 -10.9625 -32.1536 0.0000 0.0000 0.0000 75.0245 -20.5191 -122.5042 -5.3273 -13.7432 42.2182 -0.4210 21.8173 33.4529 -9.5789 -17.1662 58.0716 27.0072 -6.3850 25.5435 18.9656 3.1699 0.5712 6.3978 0.5637 -13.0038 -11.2153 -8.8732 -11.0335 9.8644 -10.8390 -0.2409 4.0795 -5.1801 2.8451 0.0000 0.0000 0.0000 91.7081 -62.5018 -94.6302 12.7593 -20.9335 -2.3666 -0.0000 -0.0000 35.1848 11.3288 18.9455 3.7215 -7.1250 0.0000 -0.0000 -16.3799 48.5677 -1.4781 0.0000 0.0000 0.0000 -3.4541 52.2772 -66.3867 -6.9907 11.9039 -0.7297 0.0000 0.0000 16.4120 -11.6538 19.0530 -3.8519 7.1250 -0.0000 -0.0000 10.7479 -10.8177 8.6982
0.00 0.00 0.00 18.8028 28.2487 54.5181 0.0000 0.0000 0.0000 -20.0586 -18.0157 -45.5221 3.9063 12.0347 35.8549 -0.3312 -17.1478 20.9912 2.1696 -9.2107 -26.4566 0.0000 0.0000 0.0000 74.0349 -20.6965 -123.0477 -5.2016 -13.6073 41.6864 -0.8057 21.7293 35.5549 -9.7122 -17.2448 58.5221 26.9952 -7.3911 28.8388 19.0755 3.0809 1.2818 6.7438 0.4768 -13.6897 -9.1729 -7.8016 -12.1933 8.6001 -9.4838 -1.3777 3.4856 -4.5298 2.3803 0.0000 -0.0000 0.0000 84.5681 -58.9908 -76.2875 14.4014 -23.3056 -2.9851 -0.0000 -0.0000 24.7685 12.5428 21.0275 4.5642 -7.1250 0.0000 -0.0000 -16.0885 50.7705 -2.3397 0.0000 -0.0000 0.0000 -4.3677 54.7741 -73.7435 -6.3907 10.9123 -0.6110 0.0000 0.0000 21.4037 -12.7644 19.4944 -4.3233 7.1250 -0.0000 -0.0000 10.0375 -10.2684 8.2179
0.00 0.00 0.00 27.8099 16.2040 60.5207 0.0000 0.0000 0.0000 -21.0390 -14.8404 -34.1842 2.6612 10.1253 29.3833 -0.2459 -12.8398 14.7097 10.7122 -17.7913 -61.8434 0.0000 0.0000 0.0000 61.2303 -22.1201 -124.2086 -5.1935 -13.5985 41.6523 -1.4695 21.5868 38.8304 -9.8272 -17.3115 58.9093 17.8252 -8.2238 40.2327 25.8087 4.0798 4.0977 19.9643 1.8498 -17.5967 -23.5339 -4.7805 -10.5313 11.0056 -3.7665 -8.3083 7.0692 -1.3293 -0.1740 0.0000 -0.0000 0.0000 61.6049 -53.9528 -60.7918 15.9102 -25.3988 -3.6074 -0.0000 -0.0000 22.4327 16.5357 22.5281 6.4895 -7.1250 0.0000 -0.0000 -12.8502 52.9208 -2.5378 0.0000 -0.0000 0.0000 -23.0817 63.8510 -99.2774 -4.9677 8.5300 -0.3707 0.0000 0.0000 24.8388 -20.6125 14.1458 -5.2519 7.1250 -0.0000 -0.0000 4.6634 -14.9439 3.3143
0.00 0.00 0.00 29.6838 12.7226 62.0683 0.0000 0.0000 0.0000 -18.9012 -10.8805 -26.3369 1.8072 8.4524 24.0969 -0.2115 -8.4736 5.6808 10.2909 -17.5702 -60.4563 0.0000 0.0000 0.0000 -44.9930 16.5706 -76.6699 -5.2976 -13.7113 42.0931 -12.1002 -11.3021 -69.6136 -8.0000 -16.1192 52.5627 13.7198 -10.3332 46.6040 29.2125 2.6485 5.3107 29.8382 1.7452 -17.5896 -29.3556 -2.3766 -17.1142 10.4316 2.3079 -5.7720 8.0227 1.9632 0.4110 -0.0000 0.0000 0.0000 42.4449 -47.2422 -47.2323 16.4912 -26.1822 -3.8602 -0.0000 -0.0000 24.4682 17.0167 20.2270 6.0402 -7.1250 0.0000 -0.0000 -11.4692 50.6996 -1.6293 -0.0000 0.0000 0.0000 -48.3776 73.4509 -120.7044 -4.7430 8.1503 -0.3381 0.0000 0.0000 17.6436 -25.5447 12.8010 -6.0447 7.1250 -0.0000 -0.0000 1.2061 -15.8470 0.8311
0.00 0.00 0.00 31.5974 7.8700 63.8506 0.0000 0.0000 0.0000 -18.5285 -4.9324 -16.8163 0.6359 5.1022 14.2002 -0.0149 5.1889 3.1295 8.4738 -16.4569 -54.2518 0.0000 0.0000 0.0000 -63.4821 27.2558 -77.7442 -5.5690 -13.9973 43.2266 -18.5323 -16.5756 -86.5501 -7.1892 -15.4892 49.5863 10.2390 -11.7672 51.3147 30.3592 1.4511 7.4754 38.5613 2.2252 -18.1266 -36.7411 -1.9942 -23.9895 13.4406 7.2539 -2.6590 10.4834 4.7087 0.9931 0.0000 -0.0000 0.0000 29.5549 -38.6086 -34.7605 18.3923 -28.6566 -4.7359 -0.0000 -0.0000 23.8857 17.2249 20.8260 6.2900 -7.1250 0.0000 -0.0000 -11.4878 51.3368 -1.8133 0.0000 -0.0000 0.0000 -89.2282 77.9400 -158.7058 -5.0834 8.7252 -0.3881 0.0000 0.0000 12.1042 -28.0918 11.7986 -6.2286 7.1250 -0.0000 -0.0000 -0.6291 -16.6591 -0.4224
0.00 0.00 0.00 31.9677 6.5735 64.3398 0.0000 0.0000 0.0000 -17.7601 -3.3098 -11.3753 0.1945 2.8402 7.8341 -0.2918 12.8702 4.5365 7.1175 -15.4300 -49.3173 0.0000 0.0000 0.0000 -69.2703 30.5672 -78.8246 -5.6949 -14.1260 43.7446 -20.8075 -17.4614 -91.8746 -6.9395 -15.2808 48.6453 10.4934 -12.4028 52.9666 30.6892 1.6330 7.4335 39.7220 2.4655 -18.8375 -39.1933 -2.0211 -25.0562 14.6093 8.4353 -2.1692 11.3183 5.4052 0.8597 -0.0000 -0.0000 0.0000 27.2225 -37.9693 -36.4201 17.8455 -27.9589 -4.4766 -0.0000 -0.0000 28.1143 17.9294 19.1329 6.0536 -7.1250 0.0000 -0.0000 -10.2104 49.7378 -1.2038 -0.0000 -0.0000 0.0000 -94.5619 78.7483 -149.5875 -5.4904 9.4095 -0.4522 0.0000 -0.0000 -2.7392 -29.3478 9.8729 -5.5068 7.1250 -0.0000 -0.0000 -1.6629 -18.6909 -1.0427
